name D:\school\WTK\thesis\model\3dpredictsim\Results\debug\Pog_s1_tmt_bCst_d05_k1000_WL30_ig24_act_TTC_IATx30Tn0P50_v2.mot
datacolumns 128
datarows 4
range 1.68225101 1.71589603
endheader
time	pelvis_tilt	pelvis_list	pelvis_rotation	pelvis_tx	pelvis_ty	pelvis_tz	hip_flexion_l	hip_adduction_l	hip_rotation_l	hip_flexion_r	hip_adduction_r	hip_rotation_r	knee_angle_l	knee_angle_r	ankle_angle_l	ankle_angle_r	subtalar_angle_l	subtalar_angle_r	tmt_angle_l	tmt_angle_r	mtp_angle_l	mtp_angle_r	lumbar_extension	lumbar_bending	lumbar_rotation	arm_flex_l	arm_add_l	arm_rot_l	arm_flex_r	arm_add_r	arm_rot_r	elbow_flex_l	elbow_flex_r	pro_sup_l	pro_sup_r	glut_med1_l/activation	glut_med2_l/activation	glut_med3_l/activation	glut_min1_l/activation	glut_min2_l/activation	glut_min3_l/activation	semimem_l/activation	semiten_l/activation	bifemlh_l/activation	bifemsh_l/activation	sar_l/activation	add_long_l/activation	add_brev_l/activation	add_mag1_l/activation	add_mag2_l/activation	add_mag3_l/activation	tfl_l/activation	pect_l/activation	grac_l/activation	glut_max1_l/activation	glut_max2_l/activation	glut_max3_l/activation	iliacus_l/activation	psoas_l/activation	quad_fem_l/activation	gem_l/activation	peri_l/activation	rect_fem_l/activation	vas_med_l/activation	vas_int_l/activation	vas_lat_l/activation	med_gas_l/activation	lat_gas_l/activation	soleus_l/activation	tib_post_l/activation	flex_dig_l/activation	flex_hal_l/activation	tib_ant_l/activation	per_brev_l/activation	per_long_l/activation	per_tert_l/activation	ext_dig_l/activation	ext_hal_l/activation	ercspn_l/activation	intobl_l/activation	extobl_l/activation	glut_med1_r/activation	glut_med2_r/activation	glut_med3_r/activation	glut_min1_r/activation	glut_min2_r/activation	glut_min3_r/activation	semimem_r/activation	semiten_r/activation	bifemlh_r/activation	bifemsh_r/activation	sar_r/activation	add_long_r/activation	add_brev_r/activation	add_mag1_r/activation	add_mag2_r/activation	add_mag3_r/activation	tfl_r/activation	pect_r/activation	grac_r/activation	glut_max1_r/activation	glut_max2_r/activation	glut_max3_r/activation	iliacus_r/activation	psoas_r/activation	quad_fem_r/activation	gem_r/activation	peri_r/activation	rect_fem_r/activation	vas_med_r/activation	vas_int_r/activation	vas_lat_r/activation	med_gas_r/activation	lat_gas_r/activation	soleus_r/activation	tib_post_r/activation	flex_dig_r/activation	flex_hal_r/activation	tib_ant_r/activation	per_brev_r/activation	per_long_r/activation	per_tert_r/activation	ext_dig_r/activation	ext_hal_r/activation	ercspn_r/activation	intobl_r/activation	extobl_r/activation	
          1.68225101	         -2.92610151	         -0.85508335	         -6.10571755	          2.10281376	          0.87394203	         -0.00001069	         28.17791017	         -0.88790445	         -2.00936420	        -14.03086827	         -0.56757448	          6.94777862	        -18.30387714	        -17.19151628	          5.20728369	        -22.42195640	          8.79193103	         18.77947686	         -0.34416911	        -12.80272489	          1.03154435	         39.56629468	          0.29006544	          2.71605592	          1.95098328	        -12.18063114	        -13.50806213	          7.63035971	          3.84757174	        -13.47224271	         15.04688840	         19.61185679	         36.13151288	         86.51662706	         86.51662706	          0.07895299	          0.05000360	          0.14215839	          0.05000362	          0.05000281	          0.05000214	          0.09084328	          0.07043857	          0.12768330	          0.05000375	          0.05000163	          0.05934762	          0.09923113	          0.17836314	          0.15900696	          0.17123928	          0.05000295	          0.05933464	          0.06694875	          0.05000277	          0.05323075	          0.20998425	          0.05000170	          0.05000118	          0.06823026	          0.05000452	          0.05090133	          0.05000081	          0.14789223	          0.14715290	          0.12890319	          0.05934583	          0.05934581	          0.05934582	          0.05000026	          0.05037503	          0.05934513	          0.62006143	          0.21284743	          0.13979528	          0.49702804	          0.55732158	          0.37320732	          0.05000012	          0.10388745	          0.10197395	          0.11878010	          0.07638717	          0.06990903	          0.13124919	          0.11725205	          0.08630569	          0.05000326	          0.05000053	          0.05000040	          0.05000037	          0.07022997	          0.18318705	          0.05001520	          0.05001040	          0.05000941	          0.05000175	          0.16042040	          0.05002392	          0.05000311	          0.05023473	          0.05023629	          0.05057375	          0.34548554	          0.45678188	          0.12588096	          0.05000178	          0.05523393	          0.23376070	          0.16591223	          0.14274703	          0.12129042	          0.07862579	          0.13334992	          0.05000020	          0.08324297	          0.09063834	          0.10042573	          0.12711532	          0.49213195	          0.38743183	          0.37240566	          0.43044219	          0.05632902	          0.05000004	          0.06365349	          0.06541804	
          1.69346601	         -2.91528029	         -0.87965621	         -6.29388566	          2.12019766	          0.87137693	         -0.00014146	         27.81438343	         -0.70593442	         -1.80259033	        -14.29402643	         -0.76515077	          6.69568273	        -18.64667323	        -18.20954431	          4.76938563	        -24.24054102	          8.40131986	         18.99533371	         -0.36370010	        -12.47704794	          1.15802750	         38.19047899	          0.46817832	          2.50376375	          2.01922491	        -13.19593482	        -13.52304834	          7.70052685	          3.67323462	        -13.50777668	         15.41516238	         19.29200801	         36.80611123	         86.51662706	         86.51662706	          0.06651991	          0.07395900	          0.16200058	          0.05000067	          0.05000084	          0.05007488	          0.07653723	          0.05934595	          0.10757566	          0.05000028	          0.05000062	          0.05000176	          0.08360435	          0.15027607	          0.19036969	          0.17203147	          0.05000364	          0.05000155	          0.05640617	          0.05934616	          0.05934669	          0.20610517	          0.05000015	          0.05000032	          0.13988723	          0.05934681	          0.05826219	          0.07043912	          0.28063316	          0.26331110	          0.23269439	          0.05000001	          0.05000003	          0.05000000	          0.05000010	          0.05000046	          0.05000020	          0.72304040	          0.17932818	          0.11778036	          0.61718852	          0.57946300	          0.34768124	          0.05000003	          0.08752719	          0.08591502	          0.10007462	          0.06436588	          0.07063637	          0.11058017	          0.09878743	          0.07273532	          0.05006733	          0.05000359	          0.05014453	          0.05467029	          0.05962454	          0.20422049	          0.11978807	          0.08058337	          0.05008522	          0.05940365	          0.13515751	          0.07031968	          0.07039987	          0.05000269	          0.05000191	          0.05000179	          0.29107823	          0.38484753	          0.14101980	          0.13971841	          0.07380809	          0.19694786	          0.13979365	          0.13979434	          0.13979457	          0.06624380	          0.11234995	          0.05000019	          0.07013386	          0.07636474	          0.08461069	          0.19078749	          0.44279551	          0.36162355	          0.36041937	          0.50994364	          0.05518454	          0.05000007	          0.07043878	          0.07791060	
          1.70468102	         -2.89904565	         -0.88890755	         -6.45786816	          2.13776825	          0.86847858	         -0.00025781	         27.28598251	         -0.52066621	         -1.54136707	        -14.46801712	         -0.95964307	          6.43771031	        -19.62022428	        -19.50350337	          4.55302175	        -25.64081982	          7.97783453	         19.12082560	         -0.53147830	        -11.74970050	          1.24038357	         35.54018405	          0.65870471	          2.26879477	          2.07644736	        -14.19342578	        -13.54979420	          7.84062669	          3.44652847	        -13.55784600	         15.74217488	         18.94290699	         37.46634185	         86.51662706	         86.51662706	          0.25390838	          0.31321422	          0.48365771	          0.18044681	          0.05966588	          0.39425142	          0.07043826	          0.05000031	          0.09063463	          0.05000021	          0.05923925	          0.06041431	          0.07043945	          0.12661064	          0.16039034	          0.16647903	          0.05000093	          0.07017773	          0.05000130	          0.05000043	          0.05000078	          0.19471382	          0.05934590	          0.05000800	          0.11785776	          0.05000256	          0.24056259	          0.05934634	          0.27287800	          0.27303817	          0.24995999	          0.05934587	          0.05934593	          0.05934585	          0.13707733	          0.05000429	          0.05934612	          0.60917540	          0.15108747	          0.09923224	          0.51999319	          0.48917823	          0.29292822	          0.05000006	          0.07374349	          0.07238505	          0.20151664	          0.05934621	          0.05951261	          0.09316612	          0.08323071	          0.06128119	          0.05000385	          0.05000123	          0.05000196	          0.05000043	          0.05023791	          0.17206292	          0.15099965	          0.07029019	          0.05934591	          0.05005135	          0.11387317	          0.07052669	          0.05934742	          0.05934817	          0.05934711	          0.05934747	          0.24523910	          0.32424160	          0.11881205	          0.11771561	          0.06218479	          0.16593234	          0.11777922	          0.11777960	          0.11777971	          0.05581205	          0.09465713	          0.05000096	          0.05908920	          0.06433898	          0.07128622	          0.22193602	          0.43297400	          0.34569953	          0.33948357	          0.59086962	          0.05000255	          0.06707401	          0.05934604	          0.06983621	
          1.71589603	         -2.88110495	         -0.87993301	         -6.59032957	          2.15529621	          0.86556342	         -0.00037345	         26.62733177	         -0.31544898	         -1.26124311	        -14.53307235	         -1.15744961	          6.19114794	        -20.61429159	        -21.03755268	          4.69760900	        -26.73084344	          7.52653099	         19.17527638	         -0.69259828	        -10.63252854	          1.41734775	         31.65642525	          0.84626800	          2.01003725	          2.12283199	        -15.11140194	        -13.57667374	          8.04472997	          3.21228676	        -13.60819807	         16.05401176	         18.52428569	         38.04266241	         86.51662706	         86.51662706	          0.34592997	          0.42399120	          0.51164474	          0.33279984	          0.33872320	          0.36069738	          0.05934582	          0.06176336	          0.07636145	          0.05961431	          0.05001233	          0.05090031	          0.05934666	          0.10667205	          0.13513239	          0.16131224	          0.05000093	          0.05912660	          0.05934673	          0.27231239	          0.19849449	          0.17982938	          0.05000039	          0.05000025	          0.09929762	          0.05302795	          0.20267903	          0.05000045	          0.33613803	          0.34703981	          0.31692136	          0.05000004	          0.05000011	          0.05000002	          0.14668747	          0.05000171	          0.05000070	          0.76924552	          0.12729411	          0.08360507	          0.44376544	          0.55139962	          0.46969799	          0.05044676	          0.06213037	          0.06098580	          0.16978380	          0.05000053	          0.05014055	          0.14891245	          0.07012403	          0.05163081	          0.05000488	          0.05000026	          0.05000032	          0.05000035	          0.05008316	          0.15695215	          0.12722067	          0.05922134	          0.05000279	          0.05000166	          0.09594075	          0.05942201	          0.05000177	          0.05000354	          0.05000211	          0.05000187	          0.20661883	          0.28669019	          0.10010147	          0.09917787	          0.05239200	          0.13980117	          0.09923170	          0.09923181	          0.09923179	          0.05000263	          0.07975060	          0.05000634	          0.05000020	          0.05420719	          0.06006014	          0.27318263	          0.36478918	          0.29125864	          0.34602502	          0.65745053	          0.06548776	          0.11582676	          0.05000018	          0.05883837	
